<svg data-v-423bf9ae="" xmlns="http://www.w3.org/2000/svg" viewBox="0 0 174.3746059659009 60" class="font"><!----><!----><defs data-v-423bf9ae=""><linearGradient data-v-423bf9ae="" gradientTransform="rotate(25)" id="6eb544cd-ce37-4cd5-b526-ddb815a27f8c" x1="0%" y1="0%" x2="100%" y2="0%"><stop data-v-423bf9ae="" offset="0%" style="stop-color: rgb(0, 21, 214); stop-opacity: 1;"></stop><stop data-v-423bf9ae="" offset="100%" style="stop-color: rgb(9, 137, 251); stop-opacity: 1;"></stop></linearGradient></defs><g data-v-423bf9ae="" id="36019eb3-b6f4-4eb4-8cd7-526daf6d241d" fill="url(#6eb544cd-ce37-4cd5-b526-ddb815a27f8c)" transform="matrix(5.681817956043021,0,0,5.681817956043021,-23.541413632248677,-0.8522728166796938)"><path d="M4.21 9.91C3.91 10.44 4.70 10.92 5.03 10.39L9.91 1.11C10.22 0.57 9.41 0.10 9.10 0.63ZM16.62 2.23L16.62 2.23L13.65 2.23C13.38 2.23 13.17 2.42 13.17 2.69L13.17 4.56C13.17 4.82 13.38 5.03 13.65 5.03L15.75 5.03C16.00 5.03 16.21 4.82 16.21 4.56C16.21 4.30 16.00 4.09 15.75 4.09L14.11 4.09L14.11 3.15L16.62 3.15C16.88 3.15 17.09 2.94 17.09 2.69C17.09 2.42 16.88 2.23 16.62 2.23ZM15.75 5.96L15.75 5.96L13.65 5.96C13.38 5.96 13.17 6.17 13.17 6.43L13.17 10.18C13.17 10.43 13.38 10.64 13.65 10.64C13.90 10.64 14.11 10.43 14.11 10.18L14.11 6.90L15.75 6.90C16.00 6.90 16.21 6.69 16.21 6.43C16.21 6.17 16.00 5.96 15.75 5.96ZM12.24 10.18L12.24 10.18L12.24 1.29L16.62 1.29C16.88 1.29 17.09 1.08 17.09 0.81C17.09 0.56 16.88 0.35 16.62 0.35L11.77 0.35C11.51 0.35 11.31 0.56 11.31 0.81L11.31 10.18C11.31 10.43 11.51 10.64 11.77 10.64C12.03 10.64 12.24 10.43 12.24 10.18ZM22.74 5.03L22.74 5.03C24.61 5.03 24.61 2.23 22.74 2.23L21.08 2.23C20.47 2.23 20.47 3.16 21.08 3.16L22.74 3.16C23.38 3.16 23.38 4.10 22.74 4.10C22.37 4.10 21.74 3.99 21.74 4.56C21.74 5.12 22.37 5.03 22.74 5.03ZM19.68 10.16L19.68 10.16L19.68 1.29L22.90 1.29C25.91 1.29 25.91 5.96 22.90 5.96L21.08 5.96C20.83 5.96 20.61 6.17 20.61 6.43L20.61 10.16C20.61 10.78 21.56 10.78 21.56 10.16L21.56 6.90L22.90 6.90C27.13 6.90 27.15 0.36 22.90 0.36L19.21 0.36C18.96 0.36 18.75 0.56 18.75 0.84L18.75 10.16C18.75 10.78 19.68 10.78 19.68 10.16ZM34.55 0.56L34.55 0.56C33.89 0.29 33.19 0.15 32.48 0.15C28.95 0.15 27.20 2.81 27.22 5.47C27.23 8.09 28.99 10.71 32.48 10.71C33.19 10.71 33.89 10.57 34.55 10.30C35.11 10.08 34.76 9.21 34.19 9.45C33.64 9.66 33.08 9.79 32.48 9.79C29.61 9.79 28.14 7.64 28.13 5.45C28.13 2.98 29.92 1.08 32.44 1.08C33.04 1.08 33.63 1.19 34.19 1.43C34.76 1.65 35.11 0.80 34.55 0.56ZM33.91 7.50L33.91 7.50C33.43 7.77 32.91 7.88 32.42 7.87C31.22 7.83 30.14 6.99 30.14 5.45C30.14 3.26 32.28 2.46 33.91 3.36C34.44 3.67 34.89 2.84 34.34 2.56C32.07 1.29 29.22 2.56 29.22 5.45C29.22 7.52 30.73 8.78 32.44 8.81C33.08 8.82 33.74 8.67 34.34 8.32C34.89 8.02 34.44 7.22 33.91 7.50Z"></path></g><!----><!----></svg>