<svg data-v-423bf9ae="" xmlns="http://www.w3.org/2000/svg" viewBox="0 0 246.5865004625416 60" class="font"><!----><!----><defs data-v-423bf9ae=""><linearGradient data-v-423bf9ae="" gradientTransform="rotate(25)" id="b4db40e5-8383-400e-add8-d507a8d6344b" x1="0%" y1="0%" x2="100%" y2="0%"><stop data-v-423bf9ae="" offset="0%" style="stop-color: rgb(146, 13, 233); stop-opacity: 1;"></stop><stop data-v-423bf9ae="" offset="100%" style="stop-color: rgb(21, 54, 241); stop-opacity: 1;"></stop></linearGradient></defs><g data-v-423bf9ae="" id="c92cc0ab-bfee-48e3-8ce6-dc4e8d735121" fill="url(#b4db40e5-8383-400e-add8-d507a8d6344b)" transform="matrix(6.036216979508284,0,0,6.036216979508284,-2.5352085780628784,-25.291749012697657)"><path d="M4.30 5.03C3.88 4.51 3.28 4.21 2.62 4.21C1.41 4.21 0.42 5.25 0.42 6.52C0.42 6.83 0.67 7.08 0.98 7.08C1.29 7.08 1.54 6.83 1.54 6.52C1.54 6.20 1.67 5.89 1.88 5.67C2.07 5.45 2.34 5.33 2.62 5.33C2.93 5.33 3.22 5.47 3.43 5.74C3.63 5.98 3.98 6.01 4.21 5.81C4.47 5.61 4.49 5.26 4.30 5.03ZM1.54 8.55L1.54 7.08C1.40 7.24 1.20 7.32 0.98 7.32C0.77 7.32 0.57 7.24 0.42 7.10L0.42 13.44C0.42 13.75 0.67 14 0.98 14C1.29 14 1.54 13.75 1.54 13.44L1.54 9.67L2.62 9.67C2.93 9.67 3.18 9.44 3.18 9.11C3.18 8.81 2.93 8.55 2.62 8.55ZM7.88 7.48C7.46 6.96 6.86 6.66 6.20 6.66C5.78 6.66 5.38 6.79 5.04 7.01C4.94 6.86 4.76 6.75 4.56 6.75C4.26 6.75 4.00 7 4.00 7.31L4.00 8.97C4.00 9.28 4.26 9.53 4.56 9.53C4.87 9.53 5.12 9.28 5.12 8.97C5.12 8.65 5.25 8.34 5.46 8.12C5.66 7.90 5.92 7.78 6.20 7.78C6.51 7.78 6.80 7.92 7.01 8.19C7.21 8.43 7.56 8.46 7.80 8.26C8.05 8.06 8.08 7.71 7.88 7.48ZM4.56 9.77C4.34 9.77 4.14 9.69 4.00 9.53L4.00 13.44C4.00 13.75 4.26 14 4.56 14C4.87 14 5.12 13.75 5.12 13.44L5.12 9.53C4.98 9.69 4.79 9.77 4.56 9.77ZM10.64 6.65C10.04 6.65 9.51 6.85 9.10 7.20C8.67 7.57 8.43 8.12 8.43 8.74C8.43 9.04 8.68 9.30 8.99 9.30C9.30 9.30 9.55 9.04 9.55 8.74C9.55 8.44 9.65 8.20 9.84 8.04C10.04 7.87 10.32 7.77 10.64 7.77C10.92 7.77 11.19 7.90 11.38 8.11C11.59 8.34 11.72 8.64 11.72 8.96L11.72 9.87C11.40 9.67 11.03 9.56 10.64 9.56C9.72 9.56 8.93 10.15 8.60 10.99C8.72 10.92 8.85 10.89 8.99 10.89C9.30 10.89 9.55 11.05 9.69 11.30C9.74 11.20 9.80 11.10 9.88 11.02C10.08 10.81 10.36 10.68 10.64 10.68C10.92 10.68 11.19 10.81 11.38 11.02C11.47 11.10 11.52 11.20 11.58 11.30C11.62 11.23 11.66 11.17 11.72 11.12C11.86 10.98 12.05 10.89 12.28 10.89C12.42 10.89 12.56 10.92 12.67 10.99C12.73 11.02 12.78 11.06 12.84 11.12L12.84 8.96C12.84 7.69 11.84 6.65 10.64 6.65ZM12.28 11.13C11.97 11.13 11.72 11.38 11.72 11.69C11.72 12.01 11.59 12.32 11.38 12.54C11.17 12.77 10.91 12.88 10.63 12.88C10.35 12.88 10.08 12.77 9.88 12.54C9.66 12.32 9.55 12.01 9.55 11.69C9.55 11.38 9.30 11.13 8.99 11.13C8.68 11.13 8.43 11.38 8.43 11.69C8.43 12.96 9.42 14 10.63 14C11.84 14 12.84 12.96 12.84 11.69C12.84 11.38 12.59 11.13 12.28 11.13ZM13.68 6.50C13.68 6.26 13.72 6.02 13.78 5.81C14.06 4.87 14.90 4.20 15.86 4.19L15.88 4.19C17.09 4.19 18.09 5.22 18.09 6.50C18.09 6.59 18.06 6.68 18.03 6.75C17.93 6.93 17.74 7.06 17.53 7.06C17.30 7.06 17.11 6.93 17.02 6.75C16.98 6.68 16.97 6.59 16.97 6.50C16.97 6.17 16.84 5.88 16.63 5.64C16.42 5.43 16.16 5.31 15.88 5.31C15.60 5.31 15.33 5.43 15.13 5.64C14.91 5.88 14.80 6.17 14.80 6.50C14.80 6.59 14.78 6.68 14.74 6.75C14.64 6.93 14.46 7.06 14.24 7.06C14.01 7.06 13.83 6.93 13.73 6.75C13.71 6.68 13.68 6.59 13.68 6.50ZM18.09 8.60C18.09 9.87 17.09 10.91 15.88 10.91C15.48 10.91 15.12 10.79 14.80 10.61L14.80 13.44C14.80 13.75 14.55 14 14.24 14C13.93 14 13.68 13.75 13.68 13.44L13.68 7.11C13.82 7.25 14.01 7.34 14.24 7.34C14.46 7.34 14.66 7.25 14.80 7.11L14.80 8.60C14.80 8.92 14.91 9.23 15.13 9.45C15.33 9.67 15.60 9.79 15.88 9.79C16.16 9.79 16.42 9.67 16.63 9.45C16.84 9.23 16.97 8.92 16.97 8.60L16.97 7.11C17.11 7.25 17.30 7.34 17.53 7.34C17.74 7.34 17.93 7.25 18.09 7.11ZM20.05 5.32C20.05 5.64 19.80 5.89 19.49 5.89C19.18 5.89 18.93 5.64 18.93 5.32C18.93 5.01 19.18 4.76 19.49 4.76C19.80 4.76 20.05 5.01 20.05 5.32ZM20.05 8.99C19.91 8.85 19.71 8.76 19.49 8.76C19.28 8.76 19.07 8.85 18.93 8.99L18.93 7.21C18.93 6.90 19.18 6.65 19.49 6.65C19.80 6.65 20.05 6.90 20.05 7.21ZM20.05 9.56L20.05 13.44C20.05 13.75 19.80 14 19.49 14C19.18 14 18.93 13.75 18.93 13.44L18.93 9.56L18.93 9.51C18.96 9.23 19.19 9.00 19.49 9.00C19.78 9.00 20.02 9.23 20.05 9.51ZM23.09 6.65C21.88 6.65 20.89 7.69 20.89 8.96L20.89 11.12C21.03 10.98 21.22 10.89 21.45 10.89C21.67 10.89 21.87 10.98 22.01 11.12L22.01 8.96C22.01 8.64 22.12 8.33 22.34 8.11C22.54 7.88 22.81 7.77 23.09 7.77C23.37 7.77 23.63 7.88 23.84 8.11C24.05 8.33 24.18 8.64 24.18 8.96L24.18 11.12C24.32 10.98 24.51 10.89 24.74 10.89C24.95 10.89 25.14 10.98 25.30 11.12L25.30 8.96C25.30 7.69 24.30 6.65 23.09 6.65ZM24.74 11.13C24.51 11.13 24.32 11.26 24.23 11.44C24.19 11.51 24.18 11.59 24.18 11.69C24.18 12.01 24.05 12.32 23.84 12.54C23.63 12.75 23.37 12.88 23.09 12.88C22.81 12.88 22.54 12.75 22.34 12.54C22.12 12.32 22.01 12.01 22.01 11.69C22.01 11.59 21.99 11.51 21.95 11.44C21.85 11.26 21.67 11.13 21.45 11.13C21.22 11.13 21.04 11.26 20.94 11.44C20.92 11.51 20.89 11.59 20.89 11.69C20.89 12.96 21.88 14 23.09 14L23.10 14C24.08 14 24.91 13.31 25.19 12.38C25.26 12.17 25.30 11.93 25.30 11.69C25.30 11.59 25.27 11.51 25.24 11.44C25.14 11.26 24.95 11.13 24.74 11.13ZM30.55 6.52C30.55 6.83 30.30 7.08 29.99 7.08C29.68 7.08 29.43 6.83 29.43 6.52C29.43 6.20 29.30 5.89 29.09 5.67C28.90 5.45 28.63 5.33 28.35 5.33C28.06 5.33 27.79 5.45 27.59 5.67C27.38 5.89 27.26 6.20 27.26 6.52L27.26 11.12C27.12 10.98 26.92 10.89 26.70 10.89C26.49 10.89 26.28 10.98 26.14 11.12L26.14 6.52C26.14 5.25 27.13 4.21 28.35 4.21C29.55 4.21 30.55 5.25 30.55 6.52ZM28.34 14C27.13 14 26.14 12.96 26.14 11.69C26.14 11.38 26.39 11.13 26.70 11.13C27.01 11.13 27.26 11.38 27.26 11.69C27.26 12.01 27.37 12.32 27.59 12.54C27.79 12.77 28.06 12.88 28.34 12.88C28.62 12.88 28.88 12.77 29.09 12.54C29.30 12.32 29.43 12.01 29.43 11.69C29.43 11.38 29.68 11.13 29.99 11.13C30.30 11.13 30.55 11.38 30.55 11.69C30.55 12.96 29.55 14 28.34 14ZM33.45 6.65C32.24 6.65 31.25 7.69 31.25 8.96L31.25 11.12C31.39 10.98 31.58 10.89 31.81 10.89C32.03 10.89 32.23 10.98 32.37 11.12L32.37 8.96C32.37 8.64 32.48 8.33 32.70 8.11C32.90 7.88 33.17 7.77 33.45 7.77C33.73 7.77 33.99 7.88 34.20 8.11C34.41 8.33 34.54 8.64 34.54 8.96L34.54 11.12C34.68 10.98 34.87 10.89 35.10 10.89C35.31 10.89 35.50 10.98 35.66 11.12L35.66 8.96C35.66 7.69 34.66 6.65 33.45 6.65ZM35.10 11.13C34.87 11.13 34.68 11.26 34.59 11.44C34.55 11.51 34.54 11.59 34.54 11.69C34.54 12.01 34.41 12.32 34.20 12.54C33.99 12.75 33.73 12.88 33.45 12.88C33.17 12.88 32.90 12.75 32.70 12.54C32.48 12.32 32.37 12.01 32.37 11.69C32.37 11.59 32.35 11.51 32.31 11.44C32.21 11.26 32.03 11.13 31.81 11.13C31.58 11.13 31.40 11.26 31.30 11.44C31.28 11.51 31.25 11.59 31.25 11.69C31.25 12.96 32.24 14 33.45 14L33.46 14C34.44 14 35.27 13.31 35.55 12.38C35.62 12.17 35.66 11.93 35.66 11.69C35.66 11.59 35.63 11.51 35.60 11.44C35.50 11.26 35.31 11.13 35.10 11.13ZM36.36 7.20C36.34 6.89 36.58 6.62 36.89 6.61C37.20 6.59 37.46 6.83 37.48 7.14L37.56 9.03C37.42 8.90 37.24 8.82 37.03 8.82L36.99 8.82C36.78 8.83 36.60 8.92 36.44 9.07ZM41.19 9.09C41.05 8.93 40.85 8.85 40.64 8.83L40.60 8.83C40.40 8.83 40.21 8.90 40.07 9.03L40.15 7.14C40.17 6.83 40.43 6.59 40.74 6.61C41.05 6.62 41.29 6.89 41.27 7.20ZM38.82 14.13C38.64 14.13 38.46 14.04 38.36 13.89L36.75 11.56C36.69 11.47 36.67 11.37 36.65 11.27L36.47 9.65C36.46 9.34 36.69 9.07 37.00 9.06C37.31 9.04 37.58 9.28 37.59 9.59L37.77 11.06L38.82 12.59L39.87 11.05L40.04 9.60C40.05 9.30 40.32 9.06 40.63 9.07C40.94 9.09 41.17 9.35 41.16 9.66L40.98 11.26C40.98 11.37 40.94 11.47 40.88 11.55L39.28 13.89C39.17 14.04 39.00 14.13 38.82 14.13Z"></path></g><!----><!----></svg>