<svg data-v-423bf9ae="" xmlns="http://www.w3.org/2000/svg" viewBox="0 0 381.65070589288354 60" class="font"><!----><!----><defs data-v-423bf9ae=""><linearGradient data-v-423bf9ae="" gradientTransform="rotate(25)" id="25e684de-648a-4de7-aa9d-4018b4bcdce6" x1="0%" y1="0%" x2="100%" y2="0%"><stop data-v-423bf9ae="" offset="0%" style="stop-color: rgb(40, 139, 88); stop-opacity: 1;"></stop><stop data-v-423bf9ae="" offset="100%" style="stop-color: rgb(21, 34, 241); stop-opacity: 1;"></stop></linearGradient></defs><g data-v-423bf9ae="" id="adf5f393-6d43-43b3-9a21-62d6444d9154" fill="url(#25e684de-648a-4de7-aa9d-4018b4bcdce6)" transform="matrix(5.758157347474804,0,0,5.758157347474804,-4.030708266106757,-18.944337453535837)"><path d="M2.25 3.72L6.34 3.72L6.34 5.56L2.55 5.56L2.55 7.73L6.34 7.73L6.34 7.73Q6.33 8.05 6.24 8.37L6.24 8.37L6.24 8.37Q6.16 8.69 5.98 8.95L5.98 8.95L5.98 8.95Q5.80 9.20 5.51 9.36L5.51 9.36L5.51 9.36Q5.22 9.52 4.79 9.52L4.79 9.52L2.55 9.52L2.55 13.52L0.70 13.52L0.70 5.38L0.70 5.38Q0.70 4.62 1.04 4.17L1.04 4.17L1.04 4.17Q1.39 3.72 2.25 3.72L2.25 3.72ZM7.74 13.52L7.74 6.24L9.31 6.24L9.31 7.17L9.31 7.17Q9.55 6.68 9.92 6.39L9.92 6.39L9.92 6.39Q10.29 6.10 10.74 6.08L10.74 6.08L10.74 6.08Q11.33 6.03 11.69 6.29L11.69 6.29L11.69 6.29Q12.05 6.55 12.20 6.92L12.20 6.92L12.20 6.92Q12.35 7.29 12.28 7.68L12.28 7.68L12.28 7.68Q12.21 8.06 11.90 8.29L11.90 8.29L11.90 8.29Q11.77 7.94 11.42 7.83L11.42 7.83L11.42 7.83Q11.06 7.73 10.67 7.86L10.67 7.86L10.67 7.86Q10.28 7.99 9.96 8.36L9.96 8.36L9.96 8.36Q9.65 8.72 9.59 9.31L9.59 9.31L9.59 9.31Q9.56 9.65 9.56 9.98L9.56 9.98L9.56 9.98Q9.56 10.30 9.56 10.58L9.56 10.58L9.56 13.52L7.74 13.52ZM18.52 13.52L18.52 12.73L18.52 12.73Q17.99 13.24 17.37 13.48L17.37 13.48L17.37 13.48Q16.74 13.72 16.11 13.70L16.11 13.70L16.11 13.70Q15.48 13.68 14.89 13.41L14.89 13.41L14.89 13.41Q14.29 13.15 13.84 12.65L13.84 12.65L13.84 12.65Q13.38 12.15 13.11 11.46L13.11 11.46L13.11 11.46Q12.84 10.77 12.84 9.88L12.84 9.88L12.84 9.88Q12.84 9.04 13.13 8.33L13.13 8.33L13.13 8.33Q13.43 7.62 13.92 7.11L13.92 7.11L13.92 7.11Q14.42 6.61 15.06 6.34L15.06 6.34L15.06 6.34Q15.69 6.06 16.38 6.09L16.38 6.09L16.38 6.09Q17.05 6.12 17.46 6.39L17.46 6.39L17.46 6.39Q17.86 6.66 18.05 7.03L18.05 7.03L18.05 7.03Q18.24 7.39 18.25 7.76L18.25 7.76L18.25 7.76Q18.26 8.13 18.13 8.36L18.13 8.36L18.13 8.36Q17.89 8.01 17.46 7.89L17.46 7.89L17.46 7.89Q17.02 7.77 16.62 7.77L16.62 7.77L16.62 7.77Q15.97 7.77 15.54 8.09L15.54 8.09L15.54 8.09Q15.11 8.40 14.88 8.88L14.88 8.88L14.88 8.88Q14.66 9.35 14.65 9.91L14.65 9.91L14.65 9.91Q14.64 10.46 14.86 10.93L14.86 10.93L14.86 10.93Q15.08 11.41 15.52 11.73L15.52 11.73L15.52 11.73Q15.96 12.04 16.62 12.04L16.62 12.04L16.62 12.04Q17.18 12.04 17.54 11.79L17.54 11.79L17.54 11.79Q17.91 11.54 18.12 11.14L18.12 11.14L18.12 11.14Q18.34 10.74 18.43 10.24L18.43 10.24L18.43 10.24Q18.52 9.74 18.52 9.25L18.52 9.25L18.52 7.04L18.52 6.27L20.34 6.27L20.34 13.52L18.52 13.52ZM23.28 3.72L23.28 3.72L25.44 3.72L25.44 3.72Q26.57 3.72 27.29 4.24L27.29 4.24L27.29 4.24Q28 4.75 28.33 5.51L28.33 5.51L28.33 5.51Q28.66 6.27 28.61 7.16L28.61 7.16L28.61 7.16Q28.56 8.05 28.18 8.81L28.18 8.81L28.18 8.81Q27.80 9.58 27.10 10.09L27.10 10.09L27.10 10.09Q26.40 10.60 25.42 10.60L25.42 10.60L25.42 10.60Q24.68 10.60 24.28 10.35L24.28 10.35L24.28 10.35Q23.88 10.11 23.74 9.77L23.74 9.77L23.74 9.77Q23.60 9.42 23.67 9.04L23.67 9.04L23.67 9.04Q23.74 8.67 23.94 8.39L23.94 8.39L23.94 8.39Q24.01 8.54 24.21 8.62L24.21 8.62L24.21 8.62Q24.40 8.71 24.65 8.75L24.65 8.75L24.65 8.75Q24.89 8.79 25.13 8.79L25.13 8.79L25.13 8.79Q25.37 8.79 25.52 8.76L25.52 8.76L25.52 8.76Q25.90 8.69 26.17 8.43L26.17 8.43L26.17 8.43Q26.45 8.16 26.58 7.81L26.58 7.81L26.58 7.81Q26.71 7.45 26.71 7.05L26.71 7.05L26.71 7.05Q26.71 6.65 26.55 6.31L26.55 6.31L26.55 6.31Q26.39 5.98 26.05 5.76L26.05 5.76L26.05 5.76Q25.70 5.54 25.17 5.54L25.17 5.54L23.59 5.54L23.59 13.52L21.74 13.52L21.74 5.45L21.74 5.45Q21.74 4.68 22.09 4.20L22.09 4.20L22.09 4.20Q22.44 3.72 23.28 3.72ZM30.02 13.52L30.02 7.74L30.02 7.74Q30.04 7.32 30.19 7.04L30.19 7.04L30.19 7.04Q30.34 6.76 30.58 6.59L30.58 6.59L30.58 6.59Q30.81 6.43 31.13 6.35L31.13 6.35L31.13 6.35Q31.44 6.27 31.82 6.27L31.82 6.27L31.82 13.52L30.02 13.52ZM30.93 3.29L30.93 3.29L30.93 3.29Q31.40 3.29 31.74 3.64L31.74 3.64L31.74 3.64Q32.09 3.98 32.09 4.47L32.09 4.47L32.09 4.47Q32.09 4.96 31.75 5.31L31.75 5.31L31.75 5.31Q31.56 5.50 31.30 5.58L31.30 5.58L31.30 5.58Q31.04 5.66 30.78 5.73L30.78 5.73L30.78 5.73Q30.52 5.81 30.30 5.92L30.30 5.92L30.30 5.92Q30.09 6.02 30.00 6.26L30.00 6.26L30.00 6.26Q29.93 6.03 29.86 5.68L29.86 5.68L29.86 5.68Q29.78 5.33 29.76 4.96L29.76 4.96L29.76 4.96Q29.74 4.58 29.80 4.22L29.80 4.22L29.80 4.22Q29.86 3.86 30.10 3.63L30.10 3.63L30.10 3.63Q30.44 3.29 30.93 3.29ZM37.00 6.10L37.00 6.10L37.00 6.10Q38.11 6.10 38.97 6.64L38.97 6.64L38.97 6.64Q39.83 7.17 40.32 7.99L40.32 7.99L40.32 7.99Q40.81 8.82 40.85 9.83L40.85 9.83L40.85 9.83Q40.88 10.84 40.33 11.80L40.33 11.80L40.33 11.80Q39.87 12.60 39.13 13.08L39.13 13.08L39.13 13.08Q38.39 13.55 37.55 13.67L37.55 13.67L37.55 13.67Q36.71 13.79 35.86 13.53L35.86 13.53L35.86 13.53Q35.01 13.27 34.34 12.60L34.34 12.60L34.34 12.60Q33.59 11.83 33.33 10.82L33.33 10.82L33.33 10.82Q33.08 9.81 33.38 8.81L33.38 8.81L33.38 8.81Q33.50 8.40 33.79 8.13L33.79 8.13L33.79 8.13Q34.08 7.87 34.44 7.74L34.44 7.74L34.44 7.74Q34.80 7.62 35.20 7.63L35.20 7.63L35.20 7.63Q35.59 7.64 35.92 7.79L35.92 7.79L35.92 7.79Q36.26 7.94 36.49 8.21L36.49 8.21L36.49 8.21Q36.72 8.48 36.76 8.88L36.76 8.88L36.76 8.88Q36.55 8.72 36.26 8.71L36.26 8.71L36.26 8.71Q35.97 8.71 35.69 8.84L35.69 8.84L35.69 8.84Q35.42 8.97 35.23 9.25L35.23 9.25L35.23 9.25Q35.04 9.52 35.04 9.93L35.04 9.93L35.04 9.93Q35.04 10.63 35.34 11.09L35.34 11.09L35.34 11.09Q35.63 11.55 36.07 11.78L36.07 11.78L36.07 11.78Q36.51 12.01 37.02 12.01L37.02 12.01L37.02 12.01Q37.53 12.01 37.98 11.77L37.98 11.77L37.98 11.77Q38.42 11.54 38.71 11.07L38.71 11.07L38.71 11.07Q39.00 10.60 39.00 9.90L39.00 9.90L39.00 9.90Q39.00 9.35 38.81 8.93L38.81 8.93L38.81 8.93Q38.61 8.51 38.28 8.24L38.28 8.24L38.28 8.24Q37.95 7.97 37.52 7.86L37.52 7.86L37.52 7.86Q37.09 7.76 36.60 7.85L36.60 7.85L36.60 7.85Q36.39 7.60 36.09 7.46L36.09 7.46L36.09 7.46Q35.78 7.31 35.43 7.26L35.43 7.26L35.43 7.26Q35.08 7.21 34.73 7.27L34.73 7.27L34.73 7.27Q34.38 7.34 34.08 7.52L34.08 7.52L34.08 7.52Q34.64 6.85 35.38 6.48L35.38 6.48L35.38 6.48Q36.12 6.10 37.00 6.10ZM49.92 7.07L49.92 7.07L49.92 7.07Q49.73 6.55 49.31 6.19L49.31 6.19L49.31 6.19Q48.89 5.82 48.35 5.62L48.35 5.62L48.35 5.62Q47.81 5.42 47.21 5.37L47.21 5.37L47.21 5.37Q46.61 5.32 46.07 5.43L46.07 5.43L46.07 5.43Q45.50 5.56 45.05 5.86L45.05 5.86L45.05 5.86Q44.59 6.16 44.28 6.59L44.28 6.59L44.28 6.59Q43.96 7.01 43.79 7.53L43.79 7.53L43.79 7.53Q43.62 8.05 43.62 8.61L43.62 8.61L43.62 8.61Q43.62 9.66 44.07 10.40L44.07 10.40L44.07 10.40Q44.52 11.13 45.21 11.52L45.21 11.52L45.21 11.52Q45.89 11.91 46.70 11.94L46.70 11.94L46.70 11.94Q47.52 11.97 48.24 11.63L48.24 11.63L48.24 11.63Q48.87 11.35 49.66 10.54L49.66 10.54L50.86 11.84L50.86 11.84Q50.39 12.33 49.94 12.68L49.94 12.68L49.94 12.68Q49.49 13.03 49.01 13.26L49.01 13.26L49.01 13.26Q48.52 13.48 47.99 13.59L47.99 13.59L47.99 13.59Q47.45 13.71 46.82 13.71L46.82 13.71L46.82 13.71Q45.68 13.71 44.81 13.34L44.81 13.34L44.81 13.34Q43.95 12.98 43.33 12.37L43.33 12.37L43.33 12.37Q42.71 11.76 42.36 10.97L42.36 10.97L42.36 10.97Q42.00 10.18 41.89 9.32L41.89 9.32L41.89 9.32Q41.78 8.47 41.93 7.62L41.93 7.62L41.93 7.62Q42.08 6.78 42.49 6.05L42.49 6.05L42.49 6.05Q42.88 5.36 43.38 4.89L43.38 4.89L43.38 4.89Q43.88 4.42 44.46 4.14L44.46 4.14L44.46 4.14Q45.04 3.85 45.69 3.72L45.69 3.72L45.69 3.72Q46.34 3.60 47.04 3.58L47.04 3.58L47.04 3.58Q47.53 3.58 48.07 3.68L48.07 3.68L48.07 3.68Q48.61 3.77 49.09 3.96L49.09 3.96L49.09 3.96Q49.57 4.14 49.95 4.44L49.95 4.44L49.95 4.44Q50.33 4.73 50.48 5.12L50.48 5.12L50.48 5.12Q50.64 5.52 50.53 6.00L50.53 6.00L50.53 6.00Q50.41 6.48 49.92 7.07ZM55.64 6.10L55.64 6.10L55.64 6.10Q56.74 6.10 57.60 6.64L57.60 6.64L57.60 6.64Q58.46 7.17 58.95 7.99L58.95 7.99L58.95 7.99Q59.44 8.82 59.48 9.83L59.48 9.83L59.48 9.83Q59.51 10.84 58.97 11.80L58.97 11.80L58.97 11.80Q58.51 12.60 57.76 13.08L57.76 13.08L57.76 13.08Q57.02 13.55 56.18 13.67L56.18 13.67L56.18 13.67Q55.34 13.79 54.50 13.53L54.50 13.53L54.50 13.53Q53.65 13.27 52.98 12.60L52.98 12.60L52.98 12.60Q52.22 11.83 51.97 10.82L51.97 10.82L51.97 10.82Q51.72 9.81 52.01 8.81L52.01 8.81L52.01 8.81Q52.14 8.40 52.42 8.13L52.42 8.13L52.42 8.13Q52.71 7.87 53.07 7.74L53.07 7.74L53.07 7.74Q53.44 7.62 53.83 7.63L53.83 7.63L53.83 7.63Q54.22 7.64 54.56 7.79L54.56 7.79L54.56 7.79Q54.89 7.94 55.13 8.21L55.13 8.21L55.13 8.21Q55.36 8.48 55.40 8.88L55.40 8.88L55.40 8.88Q55.19 8.72 54.89 8.71L54.89 8.71L54.89 8.71Q54.60 8.71 54.33 8.84L54.33 8.84L54.33 8.84Q54.05 8.97 53.87 9.25L53.87 9.25L53.87 9.25Q53.68 9.52 53.68 9.93L53.68 9.93L53.68 9.93Q53.68 10.63 53.97 11.09L53.97 11.09L53.97 11.09Q54.26 11.55 54.71 11.78L54.71 11.78L54.71 11.78Q55.15 12.01 55.66 12.01L55.66 12.01L55.66 12.01Q56.17 12.01 56.61 11.77L56.61 11.77L56.61 11.77Q57.05 11.54 57.34 11.07L57.34 11.07L57.34 11.07Q57.64 10.60 57.64 9.90L57.64 9.90L57.64 9.90Q57.64 9.35 57.44 8.93L57.44 8.93L57.44 8.93Q57.25 8.51 56.92 8.24L56.92 8.24L56.92 8.24Q56.59 7.97 56.15 7.86L56.15 7.86L56.15 7.86Q55.72 7.76 55.23 7.85L55.23 7.85L55.23 7.85Q55.02 7.60 54.72 7.46L54.72 7.46L54.72 7.46Q54.42 7.31 54.07 7.26L54.07 7.26L54.07 7.26Q53.72 7.21 53.37 7.27L53.37 7.27L53.37 7.27Q53.02 7.34 52.71 7.52L52.71 7.52L52.71 7.52Q53.27 6.85 54.01 6.48L54.01 6.48L54.01 6.48Q54.75 6.10 55.64 6.10ZM62.69 13.52L59.60 6.29L61.46 6.29L63.28 10.56L64.65 7.39L64.65 7.39Q64.79 7.08 65.00 6.83L65.00 6.83L65.00 6.83Q65.21 6.57 65.49 6.40L65.49 6.40L65.49 6.40Q65.77 6.23 66.14 6.18L66.14 6.18L66.14 6.18Q66.51 6.13 66.98 6.23L66.98 6.23L63.85 13.52L62.69 13.52Z"></path></g><!----><!----></svg>